<svg width="22" height="23" viewBox="0 0 22 23" fill="none" xmlns="http://www.w3.org/2000/svg">
<path d="M11 0.107422C12.4587 0.107422 13.8576 0.686884 14.8891 1.71833C15.9205 2.74978 16.5 4.14873 16.5 5.60742C16.5 7.06611 15.9205 8.46506 14.8891 9.49651C13.8576 10.528 12.4587 11.1074 11 11.1074C9.54131 11.1074 8.14236 10.528 7.11091 9.49651C6.07946 8.46506 5.5 7.06611 5.5 5.60742C5.5 4.14873 6.07946 2.74978 7.11091 1.71833C8.14236 0.686884 9.54131 0.107422 11 0.107422ZM11 13.8574C17.0775 13.8574 22 16.3187 22 19.3574V22.1074H0V19.3574C0 16.3187 4.9225 13.8574 11 13.8574Z" fill="white"/>
</svg>
