<svg width="22" height="22" viewBox="0 0 22 22" fill="none" xmlns="http://www.w3.org/2000/svg">
<path d="M21.1429 7.33333H17.9619L17.2839 3.06167C17.1473 2.41536 16.8473 1.82013 16.4158 1.33917C15.9842 0.85821 15.4373 0.509478 14.8329 0.33C14.2258 0.12398 13.5933 0.0128013 12.9556 0H9.06179C8.42409 0.0128013 7.7916 0.12398 7.18443 0.33C6.58009 0.509478 6.03311 0.85821 5.60157 1.33917C5.17003 1.82013 4.87003 2.41536 4.73344 3.06167L4.0555 7.33333H0.87442C0.737511 7.33246 0.602341 7.36571 0.479925 7.43037C0.357509 7.49504 0.251308 7.58929 0.169977 7.70544C0.0886448 7.8216 0.0344822 7.95638 0.011902 8.0988C-0.0106782 8.24122 -0.00103731 8.38725 0.0400389 8.525L3.30803 20.075C3.47441 20.633 3.80513 21.1205 4.25215 21.4666C4.69918 21.8128 5.23921 21.9996 5.7938 22H16.2236C16.7752 21.9958 17.3113 21.8071 17.7548 21.4612C18.1984 21.1153 18.5265 20.63 18.6919 20.075L21.9599 8.525C22.0006 8.38873 22.0105 8.24432 21.9888 8.1033C21.9671 7.96228 21.9145 7.82856 21.8352 7.71279C21.7558 7.59703 21.6519 7.50243 21.5317 7.43655C21.4115 7.37067 21.2784 7.33532 21.1429 7.33333ZM5.82856 7.33333L6.45435 3.355C6.52295 3.03018 6.68209 2.73441 6.91131 2.50573C7.14054 2.27704 7.42937 2.12587 7.74069 2.07167C8.16831 1.92867 8.61331 1.84983 9.06179 1.83333H12.9556C13.4093 1.848 13.8595 1.92867 14.2941 2.07167C14.6054 2.12587 14.8942 2.27704 15.1234 2.50573C15.3527 2.73441 15.5118 3.03018 15.5804 3.355L16.1888 7.33333H5.75903H5.82856Z" fill="white"/>
</svg>
