<svg width="30" height="30" viewBox="0 0 30 30" fill="none" xmlns="http://www.w3.org/2000/svg">
<path d="M3.28084 21.4348C2.04151 16.4775 1.42184 14.0003 2.72329 12.3334C4.02329 10.6665 6.57996 10.6665 11.689 10.6665H18.3767C23.4872 10.6665 26.041 10.6665 27.3424 12.3334C28.6438 13.9988 28.0242 16.4789 26.7848 21.4348C25.9962 24.5881 25.6033 26.1639 24.4275 27.0826C23.2517 27.9998 21.6267 27.9998 18.3767 27.9998H11.689C8.43896 27.9998 6.81395 27.9998 5.63818 27.0826C4.4624 26.1639 4.06807 24.5881 3.28084 21.4348Z" stroke="#0C3A2D" stroke-width="3"/>
<path d="M25.8659 11.3888L24.8403 7.626C24.4446 6.17434 24.2467 5.44922 23.8408 4.90178C23.4361 4.3579 22.8864 3.93892 22.2548 3.69278C21.6192 3.44434 20.8681 3.44434 19.3659 3.44434M4.19922 11.3888L5.22477 7.626C5.62055 6.17434 5.81844 5.44922 6.22433 4.90178C6.62903 4.3579 7.17866 3.93892 7.81033 3.69278C8.44589 3.44434 9.197 3.44434 10.6992 3.44434" stroke="#0C3A2D" stroke-width="3"/>
<path d="M10.6992 3.44444C10.6992 3.06135 10.8514 2.69395 11.1223 2.42307C11.3932 2.15218 11.7606 2 12.1437 2H17.9214C18.3045 2 18.6719 2.15218 18.9428 2.42307C19.2137 2.69395 19.3659 3.06135 19.3659 3.44444C19.3659 3.82753 19.2137 4.19493 18.9428 4.46582C18.6719 4.73671 18.3045 4.88889 17.9214 4.88889H12.1437C11.7606 4.88889 11.3932 4.73671 11.1223 4.46582C10.8514 4.19493 10.6992 3.82753 10.6992 3.44444Z" stroke="#0C3A2D" stroke-width="3"/>
<path d="M9.25488 16.4443V22.2221M20.8104 16.4443V22.2221M15.0327 16.4443V22.2221" stroke="#0C3A2D" stroke-width="3" stroke-linecap="round" stroke-linejoin="round"/>
</svg>
