<svg width="92" height="92" viewBox="0 0 92 92" fill="none" xmlns="http://www.w3.org/2000/svg">
<path d="M62.6371 35.7344C63.0053 35.3911 63.3023 34.9786 63.5111 34.5205C63.72 34.0624 63.8365 33.5676 63.8541 33.0645C63.8718 32.5613 63.7901 32.0597 63.6138 31.5881C63.4376 31.1165 63.1701 30.6842 62.8268 30.316C62.4835 29.9477 62.071 29.6507 61.6129 29.4419C61.1548 29.2331 60.6601 29.1165 60.1569 29.0989C59.6538 29.0813 59.1521 29.163 58.6805 29.3392C58.2089 29.5155 57.7766 29.7829 57.4084 30.1262L46.1921 40.5836L35.7347 29.3634C35.035 28.6467 34.0826 28.2324 33.0813 28.2091C32.08 28.1857 31.1093 28.5552 30.3769 29.2385C29.6445 29.9217 29.2087 30.8645 29.1626 31.865C29.1166 32.8656 29.4639 33.8444 30.1304 34.5921L40.5877 45.8084L29.3676 56.2657C28.9863 56.6056 28.6768 57.0182 28.4573 57.4793C28.2377 57.9404 28.1125 58.4407 28.089 58.9509C28.0655 59.4611 28.1442 59.9708 28.3205 60.4502C28.4967 60.9295 28.767 61.3688 29.1154 61.7423C29.4638 62.1157 29.8833 62.4157 30.3493 62.6248C30.8153 62.8338 31.3183 62.9476 31.8289 62.9595C32.3395 62.9714 32.8473 62.8812 33.3225 62.6941C33.7978 62.507 34.2308 62.2268 34.5962 61.8701L45.8126 51.4166L56.2699 62.6329C56.6076 63.0212 57.0199 63.3375 57.4824 63.563C57.9449 63.7886 58.4481 63.9186 58.962 63.9456C59.4758 63.9725 59.9899 63.8957 60.4734 63.7197C60.9569 63.5437 61.4001 63.2722 61.7765 62.9213C62.1528 62.5704 62.4547 62.1474 62.6641 61.6773C62.8735 61.2073 62.9861 60.6999 62.9952 60.1854C63.0044 59.671 62.9098 59.1599 62.7172 58.6827C62.5246 58.2056 62.2379 57.7721 61.8742 57.4081L51.4207 46.1917L62.6371 35.7344Z" fill="white"/>
<path fill-rule="evenodd" clip-rule="evenodd" d="M3.8335 46C3.8335 22.7125 22.7127 3.83337 46.0002 3.83337C69.2877 3.83337 88.1668 22.7125 88.1668 46C88.1668 69.2875 69.2877 88.1667 46.0002 88.1667C22.7127 88.1667 3.8335 69.2875 3.8335 46ZM46.0002 80.5C41.4696 80.5 36.9833 79.6077 32.7976 77.8739C28.6119 76.1401 24.8086 73.5988 21.605 70.3952C18.4014 67.1916 15.8601 63.3884 14.1263 59.2026C12.3925 55.0169 11.5002 50.5306 11.5002 46C11.5002 41.4694 12.3925 36.9832 14.1263 32.7975C15.8601 28.6117 18.4014 24.8085 21.605 21.6049C24.8086 18.4012 28.6119 15.86 32.7976 14.1262C36.9833 12.3924 41.4696 11.5 46.0002 11.5C55.1501 11.5 63.9253 15.1349 70.3953 21.6049C76.8653 28.0749 80.5002 36.8501 80.5002 46C80.5002 55.15 76.8653 63.9252 70.3953 70.3952C63.9253 76.8652 55.1501 80.5 46.0002 80.5Z" fill="white"/>
</svg>
