<svg width="34" height="31" viewBox="0 0 34 31" fill="none" xmlns="http://www.w3.org/2000/svg">
<path d="M13.6665 8.66667V5.33333C13.6665 4.44928 14.0177 3.60143 14.6428 2.97631C15.2679 2.35119 16.1158 2 16.9998 2H28.6665C29.5506 2 30.3984 2.35119 31.0235 2.97631C31.6486 3.60143 31.9998 4.44928 31.9998 5.33333V25.3333C31.9998 26.2174 31.6486 27.0652 31.0235 27.6904C30.3984 28.3155 29.5506 28.6667 28.6665 28.6667H16.9998C16.1158 28.6667 15.2679 28.3155 14.6428 27.6904C14.0177 27.0652 13.6665 26.2174 13.6665 25.3333V22" stroke="#F5F1E9" stroke-width="3" stroke-linecap="round" stroke-linejoin="round"/>
<path d="M22 15.3333H2M2 15.3333L7 10.3333M2 15.3333L7 20.3333" stroke="#F5F1E9" stroke-width="3" stroke-linecap="round" stroke-linejoin="round"/>
</svg>
