<svg width="102" height="102" viewBox="0 0 102 102" fill="none" xmlns="http://www.w3.org/2000/svg">
<path d="M53.6775 8.5C77.18 8.5 96.22 27.625 96.22 51C96.22 74.375 77.18 93.5 53.6775 93.5C38.76 93.5 25.7125 85.765 18.105 74.0775L24.82 68.765C30.8125 78.4975 41.48 85 53.72 85C62.7374 85 71.3854 81.4179 77.7616 75.0416C84.1379 68.6654 87.72 60.0174 87.72 51C87.72 41.9826 84.1379 33.3346 77.7616 26.9584C71.3854 20.5821 62.7374 17 53.72 17C36.38 17 22.1 30.005 20.0175 46.75H31.7475L15.8525 62.6025L0 46.75H11.4325C13.5575 25.2875 31.6625 8.5 53.6775 8.5ZM66.2575 43.52C68.3825 43.5625 70.125 45.2625 70.125 47.43V67.0225C70.125 69.1475 68.3825 70.9325 66.215 70.9325H42.7125C40.545 70.9325 38.8025 69.1475 38.8025 67.0225V47.43C38.8025 45.2625 40.545 43.5625 42.67 43.52V39.2275C42.67 32.725 47.9825 27.455 54.4425 27.455C60.945 27.455 66.2575 32.725 66.2575 39.2275V43.52ZM54.4425 33.405C51.255 33.405 48.62 35.9975 48.62 39.2275V43.52H60.3075V39.2275C60.3075 35.9975 57.6725 33.405 54.4425 33.405Z" fill="white"/>
</svg>
