<svg width="208" height="208" viewBox="0 0 208 208" fill="none" xmlns="http://www.w3.org/2000/svg">
<path fill-rule="evenodd" clip-rule="evenodd" d="M104 17.3334C56.1339 17.3334 17.3332 56.1341 17.3332 104C17.3332 151.866 56.1339 190.667 104 190.667C151.866 190.667 190.667 151.866 190.667 104C190.667 56.1341 151.866 17.3334 104 17.3334ZM73.6665 82.3334C73.6665 78.35 74.4511 74.4055 75.9755 70.7253C77.4999 67.0451 79.7343 63.7012 82.551 60.8845C85.3677 58.0678 88.7116 55.8335 92.3918 54.3091C96.072 52.7847 100.016 52.0001 104 52.0001C107.983 52.0001 111.928 52.7847 115.608 54.3091C119.288 55.8335 122.632 58.0678 125.449 60.8845C128.265 63.7012 130.5 67.0451 132.024 70.7253C133.549 74.4055 134.333 78.35 134.333 82.3334C134.333 90.3783 131.137 98.0937 125.449 103.782C119.76 109.471 112.045 112.667 104 112.667C95.955 112.667 88.2396 109.471 82.551 103.782C76.8624 98.0937 73.6665 90.3783 73.6665 82.3334ZM158.236 147.195C151.746 155.353 143.498 161.941 134.107 166.467C124.716 170.993 114.425 173.34 104 173.333C93.5751 173.34 83.2835 170.993 73.8925 166.467C64.5015 161.941 56.2535 155.353 49.7639 147.195C63.8125 137.115 82.9832 130 104 130C125.017 130 144.187 137.115 158.236 147.195Z" fill="#BABABA"/>
</svg>
