<svg width="86" height="86" viewBox="0 0 86 86" fill="none" xmlns="http://www.w3.org/2000/svg">
<path d="M48.375 60.4688C48.375 61.5318 48.0598 62.571 47.4692 63.4549C46.8786 64.3389 46.0391 65.0278 45.0569 65.4346C44.0748 65.8414 42.9941 65.9479 41.9514 65.7405C40.9088 65.5331 39.951 65.0212 39.1993 64.2694C38.4476 63.5177 37.9357 62.56 37.7283 61.5174C37.5209 60.4747 37.6273 59.394 38.0342 58.4118C38.441 57.4297 39.1299 56.5902 40.0138 55.9996C40.8977 55.409 41.9369 55.0938 43 55.0938C44.4256 55.0938 45.7927 55.66 46.8007 56.6681C47.8087 57.6761 48.375 59.0432 48.375 60.4688ZM79.2813 43C79.2813 50.1758 77.1534 57.1904 73.1668 63.1568C69.1801 69.1232 63.5138 73.7735 56.8842 76.5195C50.2547 79.2655 42.9598 79.984 35.9219 78.5841C28.884 77.1842 22.4193 73.7287 17.3453 68.6547C12.2713 63.5807 8.81582 57.116 7.4159 50.0781C6.01598 43.0402 6.73447 35.7453 9.48051 29.1158C12.2266 22.4862 16.8768 16.8199 22.8432 12.8332C28.8097 8.84661 35.8243 6.71875 43 6.71875C52.6191 6.72942 61.8412 10.5553 68.643 17.3571C75.4447 24.1588 79.2706 33.3809 79.2813 43ZM71.2188 43C71.2188 37.4189 69.5638 31.9631 66.463 27.3225C63.3623 22.682 58.9552 19.0651 53.7989 16.9293C48.6426 14.7935 42.9687 14.2346 37.4948 15.3235C32.0209 16.4123 26.9928 19.0999 23.0463 23.0463C19.0999 26.9928 16.4123 32.0209 15.3235 37.4948C14.2347 42.9687 14.7935 48.6425 16.9293 53.7988C19.0651 58.9551 22.682 63.3623 27.3225 66.463C31.9631 69.5637 37.4189 71.2188 43 71.2188C50.4816 71.2107 57.6545 68.2351 62.9448 62.9448C68.2352 57.6545 71.2108 50.4816 71.2188 43ZM43 21.5C34.8502 21.5 28.2188 27.5267 28.2188 34.9375V36.2812C28.2188 37.3504 28.6435 38.3758 29.3995 39.1318C30.1555 39.8878 31.1809 40.3125 32.25 40.3125C33.3192 40.3125 34.3445 39.8878 35.1005 39.1318C35.8565 38.3758 36.2813 37.3504 36.2813 36.2812V34.9375C36.2813 31.9745 39.3047 29.5625 43 29.5625C46.6953 29.5625 49.7188 31.9745 49.7188 34.9375C49.7188 37.9005 46.6953 40.3125 43 40.3125C41.9309 40.3125 40.9055 40.7372 40.1495 41.4932C39.3935 42.2492 38.9688 43.2746 38.9688 44.3438V47.0312C38.9664 48.0272 39.3327 48.9888 39.9973 49.7307C40.6618 50.4725 41.5774 50.9421 42.5676 51.049C43.5578 51.1558 44.5526 50.8923 45.36 50.3092C46.1675 49.7261 46.7305 48.8648 46.9406 47.8913C53.1823 46.3191 57.7813 41.1087 57.7813 34.9375C57.7813 27.5267 51.1499 21.5 43 21.5Z" fill="white"/>
</svg>
