<svg width="26" height="26" viewBox="0 0 26 26" fill="none" xmlns="http://www.w3.org/2000/svg">
<path d="M0 13C0 13.3831 0.152182 13.7505 0.423068 14.0214C0.693954 14.2923 1.06135 14.4444 1.44444 14.4444H10.1111C10.4942 14.4444 10.8616 14.2923 11.1325 14.0214C11.4034 13.7505 11.5556 13.3831 11.5556 13V1.44444C11.5556 1.06135 11.4034 0.693954 11.1325 0.423068C10.8616 0.152182 10.4942 0 10.1111 0H1.44444C1.06135 0 0.693954 0.152182 0.423068 0.423068C0.152182 0.693954 0 1.06135 0 1.44444V13ZM0 24.5556C0 24.9386 0.152182 25.306 0.423068 25.5769C0.693954 25.8478 1.06135 26 1.44444 26H10.1111C10.4942 26 10.8616 25.8478 11.1325 25.5769C11.4034 25.306 11.5556 24.9386 11.5556 24.5556V18.7778C11.5556 18.3947 11.4034 18.0273 11.1325 17.7564C10.8616 17.4855 10.4942 17.3333 10.1111 17.3333H1.44444C1.06135 17.3333 0.693954 17.4855 0.423068 17.7564C0.152182 18.0273 0 18.3947 0 18.7778V24.5556ZM14.4444 24.5556C14.4444 24.9386 14.5966 25.306 14.8675 25.5769C15.1384 25.8478 15.5058 26 15.8889 26H24.5556C24.9386 26 25.306 25.8478 25.5769 25.5769C25.8478 25.306 26 24.9386 26 24.5556V13C26 12.6169 25.8478 12.2495 25.5769 11.9786C25.306 11.7077 24.9386 11.5556 24.5556 11.5556H15.8889C15.5058 11.5556 15.1384 11.7077 14.8675 11.9786C14.5966 12.2495 14.4444 12.6169 14.4444 13V24.5556ZM15.8889 0C15.5058 0 15.1384 0.152182 14.8675 0.423068C14.5966 0.693954 14.4444 1.06135 14.4444 1.44444V7.22222C14.4444 7.60531 14.5966 7.97271 14.8675 8.2436C15.1384 8.51448 15.5058 8.66667 15.8889 8.66667H24.5556C24.9386 8.66667 25.306 8.51448 25.5769 8.2436C25.8478 7.97271 26 7.60531 26 7.22222V1.44444C26 1.06135 25.8478 0.693954 25.5769 0.423068C25.306 0.152182 24.9386 0 24.5556 0H15.8889Z" fill="white"/>
</svg>
