<svg width="24" height="24" viewBox="0 0 24 24" fill="none" xmlns="http://www.w3.org/2000/svg">
<path d="M14.7447 8.02667L15.9712 9.25333L3.89281 21.3333H2.6663V20.1067L14.7447 8.02667ZM19.544 0C19.2107 0 18.8641 0.133333 18.6108 0.386667L16.1711 2.82667L21.1705 7.82667L23.6101 5.38667C23.7337 5.26332 23.8318 5.1168 23.8987 4.9555C23.9656 4.7942 24 4.62129 24 4.44667C24 4.27204 23.9656 4.09913 23.8987 3.93783C23.8318 3.77654 23.7337 3.63002 23.6101 3.50667L20.4906 0.386667C20.2239 0.12 19.8906 0 19.544 0ZM14.7447 4.25333L0 19V24H4.99932L19.744 9.25333L14.7447 4.25333Z" fill="#0C3A2D"/>
</svg>
