<svg width="86" height="86" viewBox="0 0 86 86" fill="none" xmlns="http://www.w3.org/2000/svg">
<path d="M79.2813 43C79.2813 50.1758 77.1534 57.1904 73.1668 63.1568C69.1801 69.1232 63.5138 73.7735 56.8842 76.5195C50.2547 79.2655 42.9598 79.984 35.9219 78.5841C28.884 77.1842 22.4193 73.7287 17.3453 68.6547C12.2713 63.5807 8.81582 57.116 7.4159 50.0781C6.01598 43.0402 6.73447 35.7453 9.48051 29.1158C12.2266 22.4862 16.8768 16.8199 22.8432 12.8332C28.8097 8.84661 35.8243 6.71875 43 6.71875C52.6191 6.72942 61.8412 10.5553 68.643 17.3571C75.4447 24.1588 79.2706 33.3809 79.2813 43ZM71.2188 43C71.2188 37.4189 69.5638 31.9631 66.463 27.3225C63.3623 22.682 58.9552 19.0651 53.7989 16.9293C48.6426 14.7935 42.9687 14.2346 37.4948 15.3235C32.0209 16.4123 26.9928 19.0999 23.0463 23.0463C19.0999 26.9928 16.4123 32.0209 15.3235 37.4948C14.2347 42.9687 14.7935 48.6425 16.9293 53.7988C19.0651 58.9552 22.682 63.3623 27.3225 66.463C31.9631 69.5637 37.4189 71.2188 43 71.2188C50.4816 71.2107 57.6545 68.2351 62.9448 62.9448C68.2352 57.6545 71.2108 50.4816 71.2188 43Z" fill="white"/>
<g clip-path="url(#clip0_583_4592)">
<path fill-rule="evenodd" clip-rule="evenodd" d="M62.8872 28.6479C63.4731 29.234 63.8022 30.0287 63.8022 30.8573C63.8022 31.6859 63.4731 32.4807 62.8872 33.0667L39.4643 56.4896C39.1548 56.7992 38.7873 57.0448 38.3828 57.2124C37.9783 57.3799 37.5448 57.4662 37.107 57.4662C36.6692 57.4662 36.2357 57.3799 35.8312 57.2124C35.4268 57.0448 35.0593 56.7992 34.7497 56.4896L23.1122 44.8542C22.8138 44.5659 22.5757 44.2211 22.4119 43.8398C22.2481 43.4586 22.1619 43.0485 22.1583 42.6336C22.1547 42.2186 22.2338 41.8071 22.3909 41.4231C22.548 41.039 22.7801 40.6901 23.0735 40.3967C23.3669 40.1033 23.7158 39.8712 24.0999 39.7141C24.4839 39.557 24.8954 39.4779 25.3104 39.4815C25.7253 39.4851 26.1354 39.5713 26.5166 39.7351C26.8979 39.8989 27.2427 40.137 27.531 40.4354L37.106 50.0104L58.4664 28.6479C58.7566 28.3575 59.1012 28.1272 59.4805 27.97C59.8597 27.8128 60.2663 27.7319 60.6768 27.7319C61.0874 27.7319 61.4939 27.8128 61.8732 27.97C62.2524 28.1272 62.597 28.3575 62.8872 28.6479Z" fill="white"/>
</g>
<defs>
<clipPath id="clip0_583_4592">
<rect width="50" height="50" fill="white" transform="translate(18 18)"/>
</clipPath>
</defs>
</svg>
