<svg width="18" height="18" viewBox="0 0 27 27" fill="none" xmlns="http://www.w3.org/2000/svg">
<path fill-rule="evenodd" clip-rule="evenodd" d="M20.9116 2.209C20.2674 1.95726 19.546 1.9153 18.6216 1.90853C18.4296 1.50313 18.1264 1.16058 17.7474 0.920734C17.3683 0.680889 16.9289 0.553612 16.4804 0.553711H11.0665C10.6181 0.553491 10.1788 0.680566 9.79978 0.920162C9.42074 1.15976 9.1175 1.50203 8.92532 1.90718C7.99955 1.9153 7.2795 1.95726 6.63525 2.209C5.86617 2.50984 5.19731 3.0211 4.7052 3.68428C4.20848 4.35154 3.97433 5.20964 3.65491 6.38851L2.80493 9.50555C2.27198 9.77339 1.8051 10.1561 1.43793 10.6262C0.596075 11.7049 0.447193 12.9894 0.597428 14.462C0.742249 15.8912 1.19295 17.6913 1.756 19.9435L1.79119 20.0883C2.1485 21.5122 2.43679 22.6694 2.78057 23.5721C3.13924 24.5142 3.59536 25.2856 4.34518 25.8717C5.09636 26.4577 5.95581 26.7108 6.95602 26.8326C7.91428 26.9463 9.10804 26.9463 10.5765 26.9463H16.9703C18.4388 26.9463 19.6313 26.9463 20.5909 26.8313C21.5924 26.7122 22.4505 26.4577 23.2003 25.8703C23.9515 25.2856 24.4063 24.5142 24.765 23.5721C25.1101 22.6694 25.3984 21.5122 25.7543 20.087L25.7909 19.9448C26.3539 17.6913 26.8033 15.8912 26.9495 14.4633C27.0983 12.988 26.9495 11.7049 26.1076 10.6262C25.7408 10.1563 25.2744 9.77356 24.7419 9.50555L23.892 6.38851C23.5712 5.20964 23.337 4.35154 22.8417 3.68293C22.3494 3.02025 21.6805 2.50947 20.9116 2.209ZM7.37424 4.0998C7.67201 3.9834 8.03203 3.94956 8.92667 3.94009C9.30835 4.73863 10.1231 5.29085 11.0652 5.29085H16.479C17.4237 5.29085 18.2385 4.73863 18.6202 3.94009C19.5149 3.94956 19.8749 3.9834 20.1726 4.0998C20.5868 4.26221 20.9468 4.53697 21.2121 4.89428C21.4503 5.21506 21.5897 5.66305 21.9836 7.1072L22.4627 8.86265C21.0578 8.67452 19.2442 8.67452 16.9906 8.67452H10.5549C8.30272 8.67452 6.48908 8.67452 5.08418 8.86265L5.5633 7.1072C5.95581 5.66305 6.09657 5.21506 6.33478 4.89428C6.5998 4.53712 6.96004 4.26178 7.37424 4.0998ZM11.0665 2.58391C10.9768 2.58391 10.8907 2.61956 10.8272 2.68302C10.7638 2.74648 10.7281 2.83254 10.7281 2.92228C10.7281 3.01202 10.7638 3.09809 10.8272 3.16154C10.8907 3.225 10.9768 3.26065 11.0665 3.26065H16.4804C16.5701 3.26065 16.6562 3.225 16.7196 3.16154C16.7831 3.09809 16.8187 3.01202 16.8187 2.92228C16.8187 2.83254 16.7831 2.74648 16.7196 2.68302C16.6562 2.61956 16.5701 2.58391 16.4804 2.58391H11.0665ZM3.03908 11.8755C3.4167 11.3923 4.01358 11.0675 5.24524 10.8888C6.50532 10.7074 8.21339 10.7047 10.6402 10.7047H16.9067C19.3335 10.7047 21.0402 10.7074 22.3003 10.8888C23.5333 11.0675 24.1302 11.3923 24.5078 11.8768C24.8854 12.36 25.056 13.0164 24.9287 14.2562C24.8001 15.5231 24.3887 17.1797 23.7999 19.5347C23.425 21.0344 23.1638 22.0739 22.8687 22.8507C22.5818 23.6006 22.3016 23.9971 21.9511 24.2719C21.6005 24.5453 21.1471 24.7199 20.3499 24.816C19.5243 24.9148 18.4551 24.9161 16.9067 24.9161H10.6402C9.09179 24.9161 8.0212 24.9148 7.19694 24.816C6.39839 24.7212 5.94633 24.5453 5.59579 24.2719C5.24389 23.9971 4.96372 23.6006 4.67814 22.8507C4.38308 22.0739 4.12186 21.0344 3.7456 19.5347C3.15819 17.1797 2.74538 15.5231 2.6168 14.2562C2.49093 13.0164 2.66147 12.3587 3.03908 11.8755Z" fill="white"/>
</svg>
