<svg width="18" height="218" viewBox="0 0 24 24" fill="none" xmlns="http://www.w3.org/2000/svg">
<path d="M2.66667 24C1.93333 24 1.30578 23.7391 0.784 23.2173C0.262222 22.6955 0.000888889 22.0675 0 21.3333V1.33334C0 0.955559 0.128 0.639115 0.384 0.384004C0.64 0.128894 0.956444 0.000893486 1.33333 4.59769e-06C1.71022 -0.00088429 2.02711 0.127116 2.284 0.384004C2.54089 0.640893 2.66844 0.957337 2.66667 1.33334V21.3333H22.6667C23.0444 21.3333 23.3613 21.4613 23.6173 21.7173C23.8733 21.9733 24.0009 22.2898 24 22.6667C23.9991 23.0435 23.8711 23.3604 23.616 23.6173C23.3609 23.8742 23.0444 24.0018 22.6667 24H2.66667ZM5.33333 20C4.95555 20 4.63911 19.872 4.384 19.616C4.12889 19.36 4.00089 19.0435 4 18.6667V9.33333C4 8.95555 4.128 8.63911 4.384 8.384C4.64 8.12889 4.95644 8.00089 5.33333 8H8C8.37778 8 8.69466 8.128 8.95066 8.384C9.20667 8.64 9.33422 8.95644 9.33333 9.33333V18.6667C9.33333 19.0444 9.20533 19.3613 8.94933 19.6173C8.69333 19.8733 8.37689 20.0009 8 20H5.33333ZM12 20C11.6222 20 11.3058 19.872 11.0507 19.616C10.7956 19.36 10.6676 19.0435 10.6667 18.6667V2.66667C10.6667 2.28889 10.7947 1.97245 11.0507 1.71734C11.3067 1.46223 11.6231 1.33423 12 1.33334H14.6667C15.0444 1.33334 15.3613 1.46134 15.6173 1.71734C15.8733 1.97334 16.0009 2.28978 16 2.66667V18.6667C16 19.0444 15.872 19.3613 15.616 19.6173C15.36 19.8733 15.0436 20.0009 14.6667 20H12ZM18.6667 20C18.2889 20 17.9724 19.872 17.7173 19.616C17.4622 19.36 17.3342 19.0435 17.3333 18.6667V14.6667C17.3333 14.2889 17.4613 13.9724 17.7173 13.7173C17.9733 13.4622 18.2898 13.3342 18.6667 13.3333H21.3333C21.7111 13.3333 22.028 13.4613 22.284 13.7173C22.54 13.9733 22.6676 14.2898 22.6667 14.6667V18.6667C22.6667 19.0444 22.5387 19.3613 22.2827 19.6173C22.0267 19.8733 21.7102 20.0009 21.3333 20H18.6667Z" fill="white"/>
</svg>
