<svg width="18" height="18" viewBox="0 0 23 28" fill="none" xmlns="http://www.w3.org/2000/svg">
<path d="M8.11765 22.4C7.37353 22.4 6.73674 22.1261 6.20729 21.5782C5.67784 21.0303 5.41267 20.3709 5.41176 19.6V2.8C5.41176 2.03 5.67694 1.37107 6.20729 0.8232C6.73765 0.275333 7.37443 0.000933333 8.11765 0H20.2941C21.0382 0 21.6755 0.2744 22.2058 0.8232C22.7362 1.372 23.0009 2.03093 23 2.8V19.6C23 20.37 22.7353 21.0294 22.2058 21.5782C21.6764 22.127 21.0391 22.4009 20.2941 22.4H8.11765ZM8.11765 19.6H20.2941V2.8H8.11765V19.6ZM2.70588 28C1.96176 28 1.32498 27.7261 0.795529 27.1782C0.266078 26.6303 0.000901961 25.9709 0 25.2V5.6H2.70588V25.2H17.5882V28H2.70588Z" fill="white"/>
</svg>
