<svg width="18" height="16" viewBox="0 0 30 27" fill="none" xmlns="http://www.w3.org/2000/svg">
<path d="M12.1113 7.77779V4.8889C12.1113 4.12271 12.4157 3.38791 12.9575 2.84614C13.4992 2.30436 14.234 2 15.0002 2H25.1114C25.8775 2 26.6124 2.30436 27.1541 2.84614C27.6959 3.38791 28.0003 4.12271 28.0003 4.8889V22.2223C28.0003 22.9885 27.6959 23.7233 27.1541 24.265C26.6124 24.8068 25.8775 25.1112 25.1114 25.1112H15.0002C14.234 25.1112 13.4992 24.8068 12.9575 24.265C12.4157 23.7233 12.1113 22.9885 12.1113 22.2223V19.3334" stroke="#F5F1E9" stroke-width="3" stroke-linecap="round" stroke-linejoin="round"/>
<path d="M19.3334 13.5555H2M2 13.5555L6.33335 9.22217M2 13.5555L6.33335 17.8889" stroke="#F5F1E9" stroke-width="3" stroke-linecap="round" stroke-linejoin="round"/>
</svg>
