<svg width="18" height="18" viewBox="0 0 25 25" fill="none" xmlns="http://www.w3.org/2000/svg">
<path d="M11.2895 6.44737H18.5526M6.44737 6.44737H7.65789M6.44737 12.5H7.65789M6.44737 18.5526H7.65789M11.2895 12.5H18.5526M11.2895 18.5526H18.5526M1 12.5C1 7.07926 1 4.36768 2.68384 2.68384C4.36768 1 7.07805 1 12.5 1C17.9207 1 20.6323 1 22.3162 2.68384C24 4.36768 24 7.07805 24 12.5C24 17.9207 24 20.6323 22.3162 22.3162C20.6323 24 17.9219 24 12.5 24C7.07926 24 4.36768 24 2.68384 22.3162C1 20.6323 1 17.9219 1 12.5Z" stroke="white" stroke-width="2" stroke-linecap="round" stroke-linejoin="round"/>
</svg>
