<svg width="987" height="189" viewBox="0 0 987 189" fill="none" xmlns="http://www.w3.org/2000/svg">
<rect x="1" y="1" width="985" height="187" rx="19" fill="#E7E7E7" stroke="#939393" stroke-width="2" stroke-linecap="round" stroke-linejoin="bevel" stroke-dasharray="10 10"/>
<path d="M427.15 108.228V114.276C427.15 114.939 427.323 115.447 427.668 115.802C428.013 116.147 428.499 116.32 429.124 116.32C429.759 116.32 430.249 116.147 430.594 115.802C430.939 115.447 431.112 114.939 431.112 114.276V108.228H433.086V114.262C433.086 115.093 432.904 115.797 432.54 116.376C432.185 116.945 431.705 117.375 431.098 117.664C430.501 117.953 429.833 118.098 429.096 118.098C428.368 118.098 427.705 117.953 427.108 117.664C426.52 117.375 426.053 116.945 425.708 116.376C425.363 115.797 425.19 115.093 425.19 114.262V108.228H427.15ZM439.278 110.132C440.202 110.132 440.948 110.426 441.518 111.014C442.087 111.593 442.372 112.405 442.372 113.45V118H440.412V113.716C440.412 113.1 440.258 112.629 439.95 112.302C439.642 111.966 439.222 111.798 438.69 111.798C438.148 111.798 437.719 111.966 437.402 112.302C437.094 112.629 436.94 113.1 436.94 113.716V118H434.98V110.244H436.94V111.21C437.201 110.874 437.532 110.613 437.934 110.426C438.344 110.23 438.792 110.132 439.278 110.132ZM447.274 110.118C447.852 110.118 448.361 110.235 448.8 110.468C449.238 110.692 449.584 110.986 449.836 111.35V110.244H451.81V118.056C451.81 118.775 451.665 119.414 451.376 119.974C451.086 120.543 450.652 120.991 450.074 121.318C449.495 121.654 448.795 121.822 447.974 121.822C446.872 121.822 445.967 121.565 445.258 121.052C444.558 120.539 444.161 119.839 444.068 118.952H446.014C446.116 119.307 446.336 119.587 446.672 119.792C447.017 120.007 447.432 120.114 447.918 120.114C448.487 120.114 448.949 119.941 449.304 119.596C449.658 119.26 449.836 118.747 449.836 118.056V116.852C449.584 117.216 449.234 117.519 448.786 117.762C448.347 118.005 447.843 118.126 447.274 118.126C446.62 118.126 446.023 117.958 445.482 117.622C444.94 117.286 444.511 116.815 444.194 116.208C443.886 115.592 443.732 114.887 443.732 114.094C443.732 113.31 443.886 112.615 444.194 112.008C444.511 111.401 444.936 110.935 445.468 110.608C446.009 110.281 446.611 110.118 447.274 110.118ZM449.836 114.122C449.836 113.646 449.742 113.24 449.556 112.904C449.369 112.559 449.117 112.297 448.8 112.12C448.482 111.933 448.142 111.84 447.778 111.84C447.414 111.84 447.078 111.929 446.77 112.106C446.462 112.283 446.21 112.545 446.014 112.89C445.827 113.226 445.734 113.627 445.734 114.094C445.734 114.561 445.827 114.971 446.014 115.326C446.21 115.671 446.462 115.937 446.77 116.124C447.087 116.311 447.423 116.404 447.778 116.404C448.142 116.404 448.482 116.315 448.8 116.138C449.117 115.951 449.369 115.69 449.556 115.354C449.742 115.009 449.836 114.598 449.836 114.122ZM456.762 110.118C457.34 110.118 457.849 110.235 458.288 110.468C458.726 110.692 459.072 110.986 459.324 111.35V110.244H461.298V118.056C461.298 118.775 461.153 119.414 460.864 119.974C460.574 120.543 460.14 120.991 459.562 121.318C458.983 121.654 458.283 121.822 457.462 121.822C456.36 121.822 455.455 121.565 454.746 121.052C454.046 120.539 453.649 119.839 453.556 118.952H455.502C455.604 119.307 455.824 119.587 456.16 119.792C456.505 120.007 456.92 120.114 457.406 120.114C457.975 120.114 458.437 119.941 458.792 119.596C459.146 119.26 459.324 118.747 459.324 118.056V116.852C459.072 117.216 458.722 117.519 458.274 117.762C457.835 118.005 457.331 118.126 456.762 118.126C456.108 118.126 455.511 117.958 454.97 117.622C454.428 117.286 453.999 116.815 453.682 116.208C453.374 115.592 453.22 114.887 453.22 114.094C453.22 113.31 453.374 112.615 453.682 112.008C453.999 111.401 454.424 110.935 454.956 110.608C455.497 110.281 456.099 110.118 456.762 110.118ZM459.324 114.122C459.324 113.646 459.23 113.24 459.044 112.904C458.857 112.559 458.605 112.297 458.288 112.12C457.97 111.933 457.63 111.84 457.266 111.84C456.902 111.84 456.566 111.929 456.258 112.106C455.95 112.283 455.698 112.545 455.502 112.89C455.315 113.226 455.222 113.627 455.222 114.094C455.222 114.561 455.315 114.971 455.502 115.326C455.698 115.671 455.95 115.937 456.258 116.124C456.575 116.311 456.911 116.404 457.266 116.404C457.63 116.404 457.97 116.315 458.288 116.138C458.605 115.951 458.857 115.69 459.044 115.354C459.23 115.009 459.324 114.598 459.324 114.122ZM462.708 114.094C462.708 113.31 462.862 112.615 463.17 112.008C463.487 111.401 463.912 110.935 464.444 110.608C464.985 110.281 465.587 110.118 466.25 110.118C466.829 110.118 467.333 110.235 467.762 110.468C468.201 110.701 468.551 110.995 468.812 111.35V110.244H470.786V118H468.812V116.866C468.56 117.23 468.21 117.533 467.762 117.776C467.323 118.009 466.815 118.126 466.236 118.126C465.583 118.126 464.985 117.958 464.444 117.622C463.912 117.286 463.487 116.815 463.17 116.208C462.862 115.592 462.708 114.887 462.708 114.094ZM468.812 114.122C468.812 113.646 468.719 113.24 468.532 112.904C468.345 112.559 468.093 112.297 467.776 112.12C467.459 111.933 467.118 111.84 466.754 111.84C466.39 111.84 466.054 111.929 465.746 112.106C465.438 112.283 465.186 112.545 464.99 112.89C464.803 113.226 464.71 113.627 464.71 114.094C464.71 114.561 464.803 114.971 464.99 115.326C465.186 115.671 465.438 115.937 465.746 116.124C466.063 116.311 466.399 116.404 466.754 116.404C467.118 116.404 467.459 116.315 467.776 116.138C468.093 115.951 468.345 115.69 468.532 115.354C468.719 115.009 468.812 114.598 468.812 114.122ZM477.068 110.132C477.656 110.132 478.179 110.263 478.636 110.524C479.094 110.776 479.448 111.154 479.7 111.658C479.962 112.153 480.092 112.75 480.092 113.45V118H478.132V113.716C478.132 113.1 477.978 112.629 477.67 112.302C477.362 111.966 476.942 111.798 476.41 111.798C475.869 111.798 475.44 111.966 475.122 112.302C474.814 112.629 474.66 113.1 474.66 113.716V118H472.7V107.64H474.66V111.21C474.912 110.874 475.248 110.613 475.668 110.426C476.088 110.23 476.555 110.132 477.068 110.132ZM491.326 108.228V109.81H487.252V112.316H490.374V113.87H487.252V118H485.292V108.228H491.326ZM496.16 118.126C495.413 118.126 494.741 117.963 494.144 117.636C493.547 117.3 493.075 116.829 492.73 116.222C492.394 115.615 492.226 114.915 492.226 114.122C492.226 113.329 492.399 112.629 492.744 112.022C493.099 111.415 493.579 110.949 494.186 110.622C494.793 110.286 495.469 110.118 496.216 110.118C496.963 110.118 497.639 110.286 498.246 110.622C498.853 110.949 499.329 111.415 499.674 112.022C500.029 112.629 500.206 113.329 500.206 114.122C500.206 114.915 500.024 115.615 499.66 116.222C499.305 116.829 498.82 117.3 498.204 117.636C497.597 117.963 496.916 118.126 496.16 118.126ZM496.16 116.418C496.515 116.418 496.846 116.334 497.154 116.166C497.471 115.989 497.723 115.727 497.91 115.382C498.097 115.037 498.19 114.617 498.19 114.122C498.19 113.385 497.994 112.82 497.602 112.428C497.219 112.027 496.748 111.826 496.188 111.826C495.628 111.826 495.157 112.027 494.774 112.428C494.401 112.82 494.214 113.385 494.214 114.122C494.214 114.859 494.396 115.429 494.76 115.83C495.133 116.222 495.6 116.418 496.16 116.418ZM503.926 111.854V115.606C503.926 115.867 503.986 116.059 504.108 116.18C504.238 116.292 504.453 116.348 504.752 116.348H505.662V118H504.43C502.778 118 501.952 117.197 501.952 115.592V111.854H501.028V110.244H501.952V108.326H503.926V110.244H505.662V111.854H503.926ZM510.515 118.126C509.769 118.126 509.097 117.963 508.499 117.636C507.902 117.3 507.431 116.829 507.085 116.222C506.749 115.615 506.581 114.915 506.581 114.122C506.581 113.329 506.754 112.629 507.099 112.022C507.454 111.415 507.935 110.949 508.541 110.622C509.148 110.286 509.825 110.118 510.571 110.118C511.318 110.118 511.995 110.286 512.601 110.622C513.208 110.949 513.684 111.415 514.029 112.022C514.384 112.629 514.561 113.329 514.561 114.122C514.561 114.915 514.379 115.615 514.015 116.222C513.661 116.829 513.175 117.3 512.559 117.636C511.953 117.963 511.271 118.126 510.515 118.126ZM510.515 116.418C510.87 116.418 511.201 116.334 511.509 116.166C511.827 115.989 512.079 115.727 512.265 115.382C512.452 115.037 512.545 114.617 512.545 114.122C512.545 113.385 512.349 112.82 511.957 112.428C511.575 112.027 511.103 111.826 510.543 111.826C509.983 111.826 509.512 112.027 509.129 112.428C508.756 112.82 508.569 113.385 508.569 114.122C508.569 114.859 508.751 115.429 509.115 115.83C509.489 116.222 509.955 116.418 510.515 116.418ZM521.249 104.742L517.469 120.534H515.551L519.331 104.742H521.249ZM531.586 108.228L528.002 118H525.622L522.038 108.228H524.138L526.826 115.998L529.5 108.228H531.586ZM533.755 109.32C533.41 109.32 533.12 109.213 532.887 108.998C532.663 108.774 532.551 108.499 532.551 108.172C532.551 107.845 532.663 107.575 532.887 107.36C533.12 107.136 533.41 107.024 533.755 107.024C534.1 107.024 534.385 107.136 534.609 107.36C534.842 107.575 534.959 107.845 534.959 108.172C534.959 108.499 534.842 108.774 534.609 108.998C534.385 109.213 534.1 109.32 533.755 109.32ZM534.721 110.244V118H532.761V110.244H534.721ZM536.153 114.094C536.153 113.31 536.307 112.615 536.615 112.008C536.933 111.401 537.362 110.935 537.903 110.608C538.445 110.281 539.047 110.118 539.709 110.118C540.213 110.118 540.694 110.23 541.151 110.454C541.609 110.669 541.973 110.958 542.243 111.322V107.64H544.231V118H542.243V116.852C542.001 117.235 541.66 117.543 541.221 117.776C540.783 118.009 540.274 118.126 539.695 118.126C539.042 118.126 538.445 117.958 537.903 117.622C537.362 117.286 536.933 116.815 536.615 116.208C536.307 115.592 536.153 114.887 536.153 114.094ZM542.257 114.122C542.257 113.646 542.164 113.24 541.977 112.904C541.791 112.559 541.539 112.297 541.221 112.12C540.904 111.933 540.563 111.84 540.199 111.84C539.835 111.84 539.499 111.929 539.191 112.106C538.883 112.283 538.631 112.545 538.435 112.89C538.249 113.226 538.155 113.627 538.155 114.094C538.155 114.561 538.249 114.971 538.435 115.326C538.631 115.671 538.883 115.937 539.191 116.124C539.509 116.311 539.845 116.404 540.199 116.404C540.563 116.404 540.904 116.315 541.221 116.138C541.539 115.951 541.791 115.69 541.977 115.354C542.164 115.009 542.257 114.598 542.257 114.122ZM553.356 113.954C553.356 114.234 553.337 114.486 553.3 114.71H547.63C547.676 115.27 547.872 115.709 548.218 116.026C548.563 116.343 548.988 116.502 549.492 116.502C550.22 116.502 550.738 116.189 551.046 115.564H553.16C552.936 116.311 552.506 116.927 551.872 117.412C551.237 117.888 550.458 118.126 549.534 118.126C548.787 118.126 548.115 117.963 547.518 117.636C546.93 117.3 546.468 116.829 546.132 116.222C545.805 115.615 545.642 114.915 545.642 114.122C545.642 113.319 545.805 112.615 546.132 112.008C546.458 111.401 546.916 110.935 547.504 110.608C548.092 110.281 548.768 110.118 549.534 110.118C550.271 110.118 550.929 110.277 551.508 110.594C552.096 110.911 552.548 111.364 552.866 111.952C553.192 112.531 553.356 113.198 553.356 113.954ZM551.326 113.394C551.316 112.89 551.134 112.489 550.78 112.19C550.425 111.882 549.991 111.728 549.478 111.728C548.992 111.728 548.582 111.877 548.246 112.176C547.919 112.465 547.718 112.871 547.644 113.394H551.326ZM558.23 118.126C557.484 118.126 556.812 117.963 556.214 117.636C555.617 117.3 555.146 116.829 554.8 116.222C554.464 115.615 554.296 114.915 554.296 114.122C554.296 113.329 554.469 112.629 554.814 112.022C555.169 111.415 555.65 110.949 556.256 110.622C556.863 110.286 557.54 110.118 558.286 110.118C559.033 110.118 559.71 110.286 560.316 110.622C560.923 110.949 561.399 111.415 561.744 112.022C562.099 112.629 562.276 113.329 562.276 114.122C562.276 114.915 562.094 115.615 561.73 116.222C561.376 116.829 560.89 117.3 560.274 117.636C559.668 117.963 558.986 118.126 558.23 118.126ZM558.23 116.418C558.585 116.418 558.916 116.334 559.224 116.166C559.542 115.989 559.794 115.727 559.98 115.382C560.167 115.037 560.26 114.617 560.26 114.122C560.26 113.385 560.064 112.82 559.672 112.428C559.29 112.027 558.818 111.826 558.258 111.826C557.698 111.826 557.227 112.027 556.844 112.428C556.471 112.82 556.284 113.385 556.284 114.122C556.284 114.859 556.466 115.429 556.83 115.83C557.204 116.222 557.67 116.418 558.23 116.418Z" fill="#0C3A2D"/>
<path d="M406.615 132.136C406.615 131.352 406.773 130.666 407.091 130.078C407.408 129.481 407.842 129.019 408.393 128.692C408.953 128.365 409.573 128.202 410.255 128.202C410.927 128.202 411.51 128.347 412.005 128.636C412.499 128.925 412.868 129.289 413.111 129.728V128.328H414.399V136H413.111V134.572C412.859 135.02 412.481 135.393 411.977 135.692C411.482 135.981 410.903 136.126 410.241 136.126C409.559 136.126 408.943 135.958 408.393 135.622C407.842 135.286 407.408 134.815 407.091 134.208C406.773 133.601 406.615 132.911 406.615 132.136ZM413.111 132.15C413.111 131.571 412.994 131.067 412.761 130.638C412.527 130.209 412.21 129.882 411.809 129.658C411.417 129.425 410.983 129.308 410.507 129.308C410.031 129.308 409.597 129.42 409.205 129.644C408.813 129.868 408.5 130.195 408.267 130.624C408.033 131.053 407.917 131.557 407.917 132.136C407.917 132.724 408.033 133.237 408.267 133.676C408.5 134.105 408.813 134.437 409.205 134.67C409.597 134.894 410.031 135.006 410.507 135.006C410.983 135.006 411.417 134.894 411.809 134.67C412.21 134.437 412.527 134.105 412.761 133.676C412.994 133.237 413.111 132.729 413.111 132.15ZM418.106 129.378V133.9C418.106 134.273 418.185 134.539 418.344 134.698C418.502 134.847 418.778 134.922 419.17 134.922H420.108V136H418.96C418.25 136 417.718 135.837 417.364 135.51C417.009 135.183 416.832 134.647 416.832 133.9V129.378H415.838V128.328H416.832V126.396H418.106V128.328H420.108V129.378H418.106ZM421.175 132.136C421.175 131.352 421.334 130.666 421.651 130.078C421.969 129.481 422.403 129.019 422.953 128.692C423.513 128.365 424.134 128.202 424.815 128.202C425.487 128.202 426.071 128.347 426.565 128.636C427.06 128.925 427.429 129.289 427.671 129.728V128.328H428.959V136H427.671V134.572C427.419 135.02 427.041 135.393 426.537 135.692C426.043 135.981 425.464 136.126 424.801 136.126C424.12 136.126 423.504 135.958 422.953 135.622C422.403 135.286 421.969 134.815 421.651 134.208C421.334 133.601 421.175 132.911 421.175 132.136ZM427.671 132.15C427.671 131.571 427.555 131.067 427.321 130.638C427.088 130.209 426.771 129.882 426.369 129.658C425.977 129.425 425.543 129.308 425.067 129.308C424.591 129.308 424.157 129.42 423.765 129.644C423.373 129.868 423.061 130.195 422.827 130.624C422.594 131.053 422.477 131.557 422.477 132.136C422.477 132.724 422.594 133.237 422.827 133.676C423.061 134.105 423.373 134.437 423.765 134.67C424.157 134.894 424.591 135.006 425.067 135.006C425.543 135.006 425.977 134.894 426.369 134.67C426.771 134.437 427.088 134.105 427.321 133.676C427.555 133.237 427.671 132.729 427.671 132.15ZM437.916 128.328V136H436.642V134.866C436.4 135.258 436.059 135.566 435.62 135.79C435.191 136.005 434.715 136.112 434.192 136.112C433.595 136.112 433.058 135.991 432.582 135.748C432.106 135.496 431.728 135.123 431.448 134.628C431.178 134.133 431.042 133.531 431.042 132.822V128.328H432.302V132.654C432.302 133.41 432.494 133.993 432.876 134.404C433.259 134.805 433.782 135.006 434.444 135.006C435.126 135.006 435.662 134.796 436.054 134.376C436.446 133.956 436.642 133.345 436.642 132.542V128.328H437.916ZM446.516 136.126C445.928 136.126 445.4 136.028 444.934 135.832C444.467 135.627 444.098 135.347 443.828 134.992C443.557 134.628 443.408 134.213 443.38 133.746H444.696C444.733 134.129 444.91 134.441 445.228 134.684C445.554 134.927 445.979 135.048 446.502 135.048C446.987 135.048 447.37 134.941 447.65 134.726C447.93 134.511 448.07 134.241 448.07 133.914C448.07 133.578 447.92 133.331 447.622 133.172C447.323 133.004 446.861 132.841 446.236 132.682C445.666 132.533 445.2 132.383 444.836 132.234C444.481 132.075 444.173 131.847 443.912 131.548C443.66 131.24 443.534 130.839 443.534 130.344C443.534 129.952 443.65 129.593 443.884 129.266C444.117 128.939 444.448 128.683 444.878 128.496C445.307 128.3 445.797 128.202 446.348 128.202C447.197 128.202 447.883 128.417 448.406 128.846C448.928 129.275 449.208 129.863 449.246 130.61H447.972C447.944 130.209 447.78 129.887 447.482 129.644C447.192 129.401 446.8 129.28 446.306 129.28C445.848 129.28 445.484 129.378 445.214 129.574C444.943 129.77 444.808 130.027 444.808 130.344C444.808 130.596 444.887 130.806 445.046 130.974C445.214 131.133 445.419 131.263 445.662 131.366C445.914 131.459 446.259 131.567 446.698 131.688C447.248 131.837 447.696 131.987 448.042 132.136C448.387 132.276 448.681 132.491 448.924 132.78C449.176 133.069 449.306 133.447 449.316 133.914C449.316 134.334 449.199 134.712 448.966 135.048C448.732 135.384 448.401 135.65 447.972 135.846C447.552 136.033 447.066 136.126 446.516 136.126ZM458.114 131.87C458.114 132.113 458.1 132.369 458.072 132.64H451.94C451.987 133.396 452.243 133.989 452.71 134.418C453.186 134.838 453.76 135.048 454.432 135.048C454.983 135.048 455.44 134.922 455.804 134.67C456.177 134.409 456.439 134.063 456.588 133.634H457.96C457.755 134.371 457.344 134.973 456.728 135.44C456.112 135.897 455.347 136.126 454.432 136.126C453.704 136.126 453.051 135.963 452.472 135.636C451.903 135.309 451.455 134.847 451.128 134.25C450.801 133.643 450.638 132.943 450.638 132.15C450.638 131.357 450.797 130.661 451.114 130.064C451.431 129.467 451.875 129.009 452.444 128.692C453.023 128.365 453.685 128.202 454.432 128.202C455.16 128.202 455.804 128.361 456.364 128.678C456.924 128.995 457.353 129.434 457.652 129.994C457.96 130.545 458.114 131.17 458.114 131.87ZM456.798 131.604C456.798 131.119 456.691 130.703 456.476 130.358C456.261 130.003 455.967 129.737 455.594 129.56C455.23 129.373 454.824 129.28 454.376 129.28C453.732 129.28 453.181 129.485 452.724 129.896C452.276 130.307 452.019 130.876 451.954 131.604H456.798ZM461.07 129.574C461.294 129.135 461.611 128.795 462.022 128.552C462.442 128.309 462.95 128.188 463.548 128.188V129.504H463.212C461.784 129.504 461.07 130.279 461.07 131.828V136H459.796V128.328H461.07V129.574ZM472.018 131.87C472.018 132.113 472.004 132.369 471.976 132.64H465.844C465.891 133.396 466.148 133.989 466.614 134.418C467.09 134.838 467.664 135.048 468.336 135.048C468.887 135.048 469.344 134.922 469.708 134.67C470.082 134.409 470.343 134.063 470.492 133.634H471.864C471.659 134.371 471.248 134.973 470.632 135.44C470.016 135.897 469.251 136.126 468.336 136.126C467.608 136.126 466.955 135.963 466.376 135.636C465.807 135.309 465.359 134.847 465.032 134.25C464.706 133.643 464.542 132.943 464.542 132.15C464.542 131.357 464.701 130.661 465.018 130.064C465.336 129.467 465.779 129.009 466.348 128.692C466.927 128.365 467.59 128.202 468.336 128.202C469.064 128.202 469.708 128.361 470.268 128.678C470.828 128.995 471.258 129.434 471.556 129.994C471.864 130.545 472.018 131.17 472.018 131.87ZM470.702 131.604C470.702 131.119 470.595 130.703 470.38 130.358C470.166 130.003 469.872 129.737 469.498 129.56C469.134 129.373 468.728 129.28 468.28 129.28C467.636 129.28 467.086 129.485 466.628 129.896C466.18 130.307 465.924 130.876 465.858 131.604H470.702ZM475.254 129.378V133.9C475.254 134.273 475.333 134.539 475.492 134.698C475.651 134.847 475.926 134.922 476.318 134.922H477.256V136H476.108C475.399 136 474.867 135.837 474.512 135.51C474.157 135.183 473.98 134.647 473.98 133.9V129.378H472.986V128.328H473.98V126.396H475.254V128.328H477.256V129.378H475.254ZM482.056 132.136C482.056 131.352 482.215 130.666 482.532 130.078C482.849 129.481 483.283 129.019 483.834 128.692C484.394 128.365 485.019 128.202 485.71 128.202C486.307 128.202 486.863 128.342 487.376 128.622C487.889 128.893 488.281 129.252 488.552 129.7V125.64H489.84V136H488.552V134.558C488.3 135.015 487.927 135.393 487.432 135.692C486.937 135.981 486.359 136.126 485.696 136.126C485.015 136.126 484.394 135.958 483.834 135.622C483.283 135.286 482.849 134.815 482.532 134.208C482.215 133.601 482.056 132.911 482.056 132.136ZM488.552 132.15C488.552 131.571 488.435 131.067 488.202 130.638C487.969 130.209 487.651 129.882 487.25 129.658C486.858 129.425 486.424 129.308 485.948 129.308C485.472 129.308 485.038 129.42 484.646 129.644C484.254 129.868 483.941 130.195 483.708 130.624C483.475 131.053 483.358 131.557 483.358 132.136C483.358 132.724 483.475 133.237 483.708 133.676C483.941 134.105 484.254 134.437 484.646 134.67C485.038 134.894 485.472 135.006 485.948 135.006C486.424 135.006 486.858 134.894 487.25 134.67C487.651 134.437 487.969 134.105 488.202 133.676C488.435 133.237 488.552 132.729 488.552 132.15ZM491.517 132.136C491.517 131.352 491.676 130.666 491.993 130.078C492.31 129.481 492.744 129.019 493.295 128.692C493.855 128.365 494.476 128.202 495.157 128.202C495.829 128.202 496.412 128.347 496.907 128.636C497.402 128.925 497.77 129.289 498.013 129.728V128.328H499.301V136H498.013V134.572C497.761 135.02 497.383 135.393 496.879 135.692C496.384 135.981 495.806 136.126 495.143 136.126C494.462 136.126 493.846 135.958 493.295 135.622C492.744 135.286 492.31 134.815 491.993 134.208C491.676 133.601 491.517 132.911 491.517 132.136ZM498.013 132.15C498.013 131.571 497.896 131.067 497.663 130.638C497.43 130.209 497.112 129.882 496.711 129.658C496.319 129.425 495.885 129.308 495.409 129.308C494.933 129.308 494.499 129.42 494.107 129.644C493.715 129.868 493.402 130.195 493.169 130.624C492.936 131.053 492.819 131.557 492.819 132.136C492.819 132.724 492.936 133.237 493.169 133.676C493.402 134.105 493.715 134.437 494.107 134.67C494.499 134.894 494.933 135.006 495.409 135.006C495.885 135.006 496.319 134.894 496.711 134.67C497.112 134.437 497.43 134.105 497.663 133.676C497.896 133.237 498.013 132.729 498.013 132.15ZM505.192 128.188C506.125 128.188 506.881 128.473 507.46 129.042C508.039 129.602 508.328 130.414 508.328 131.478V136H507.068V131.66C507.068 130.895 506.877 130.311 506.494 129.91C506.111 129.499 505.589 129.294 504.926 129.294C504.254 129.294 503.717 129.504 503.316 129.924C502.924 130.344 502.728 130.955 502.728 131.758V136H501.454V128.328H502.728V129.42C502.98 129.028 503.321 128.725 503.75 128.51C504.189 128.295 504.669 128.188 505.192 128.188ZM515.415 125.64V136H514.141V125.64H515.415ZM524.587 131.87C524.587 132.113 524.573 132.369 524.545 132.64H518.413C518.459 133.396 518.716 133.989 519.183 134.418C519.659 134.838 520.233 135.048 520.905 135.048C521.455 135.048 521.913 134.922 522.277 134.67C522.65 134.409 522.911 134.063 523.061 133.634H524.433C524.227 134.371 523.817 134.973 523.201 135.44C522.585 135.897 521.819 136.126 520.905 136.126C520.177 136.126 519.523 135.963 518.945 135.636C518.375 135.309 517.927 134.847 517.601 134.25C517.274 133.643 517.111 132.943 517.111 132.15C517.111 131.357 517.269 130.661 517.587 130.064C517.904 129.467 518.347 129.009 518.917 128.692C519.495 128.365 520.158 128.202 520.905 128.202C521.633 128.202 522.277 128.361 522.837 128.678C523.397 128.995 523.826 129.434 524.125 129.994C524.433 130.545 524.587 131.17 524.587 131.87ZM523.271 131.604C523.271 131.119 523.163 130.703 522.949 130.358C522.734 130.003 522.44 129.737 522.067 129.56C521.703 129.373 521.297 129.28 520.849 129.28C520.205 129.28 519.654 129.485 519.197 129.896C518.749 130.307 518.492 130.876 518.427 131.604H523.271ZM527.542 129.742C527.794 129.303 528.168 128.939 528.662 128.65C529.166 128.351 529.75 128.202 530.412 128.202C531.094 128.202 531.71 128.365 532.26 128.692C532.82 129.019 533.259 129.481 533.576 130.078C533.894 130.666 534.052 131.352 534.052 132.136C534.052 132.911 533.894 133.601 533.576 134.208C533.259 134.815 532.82 135.286 532.26 135.622C531.71 135.958 531.094 136.126 530.412 136.126C529.759 136.126 529.18 135.981 528.676 135.692C528.182 135.393 527.804 135.025 527.542 134.586V139.64H526.268V128.328H527.542V129.742ZM532.75 132.136C532.75 131.557 532.634 131.053 532.4 130.624C532.167 130.195 531.85 129.868 531.448 129.644C531.056 129.42 530.622 129.308 530.146 129.308C529.68 129.308 529.246 129.425 528.844 129.658C528.452 129.882 528.135 130.213 527.892 130.652C527.659 131.081 527.542 131.581 527.542 132.15C527.542 132.729 527.659 133.237 527.892 133.676C528.135 134.105 528.452 134.437 528.844 134.67C529.246 134.894 529.68 135.006 530.146 135.006C530.622 135.006 531.056 134.894 531.448 134.67C531.85 134.437 532.167 134.105 532.4 133.676C532.634 133.237 532.75 132.724 532.75 132.136ZM535.253 132.136C535.253 131.352 535.412 130.666 535.729 130.078C536.047 129.481 536.481 129.019 537.031 128.692C537.591 128.365 538.212 128.202 538.893 128.202C539.565 128.202 540.149 128.347 540.643 128.636C541.138 128.925 541.507 129.289 541.749 129.728V128.328H543.037V136H541.749V134.572C541.497 135.02 541.119 135.393 540.615 135.692C540.121 135.981 539.542 136.126 538.879 136.126C538.198 136.126 537.582 135.958 537.031 135.622C536.481 135.286 536.047 134.815 535.729 134.208C535.412 133.601 535.253 132.911 535.253 132.136ZM541.749 132.15C541.749 131.571 541.633 131.067 541.399 130.638C541.166 130.209 540.849 129.882 540.447 129.658C540.055 129.425 539.621 129.308 539.145 129.308C538.669 129.308 538.235 129.42 537.843 129.644C537.451 129.868 537.139 130.195 536.905 130.624C536.672 131.053 536.555 131.557 536.555 132.136C536.555 132.724 536.672 133.237 536.905 133.676C537.139 134.105 537.451 134.437 537.843 134.67C538.235 134.894 538.669 135.006 539.145 135.006C539.621 135.006 540.055 134.894 540.447 134.67C540.849 134.437 541.166 134.105 541.399 133.676C541.633 133.237 541.749 132.729 541.749 132.15ZM547.906 136.126C547.318 136.126 546.791 136.028 546.324 135.832C545.858 135.627 545.489 135.347 545.218 134.992C544.948 134.628 544.798 134.213 544.77 133.746H546.086C546.124 134.129 546.301 134.441 546.618 134.684C546.945 134.927 547.37 135.048 547.892 135.048C548.378 135.048 548.76 134.941 549.04 134.726C549.32 134.511 549.46 134.241 549.46 133.914C549.46 133.578 549.311 133.331 549.012 133.172C548.714 133.004 548.252 132.841 547.626 132.682C547.057 132.533 546.59 132.383 546.226 132.234C545.872 132.075 545.564 131.847 545.302 131.548C545.05 131.24 544.924 130.839 544.924 130.344C544.924 129.952 545.041 129.593 545.274 129.266C545.508 128.939 545.839 128.683 546.268 128.496C546.698 128.3 547.188 128.202 547.738 128.202C548.588 128.202 549.274 128.417 549.796 128.846C550.319 129.275 550.599 129.863 550.636 130.61H549.362C549.334 130.209 549.171 129.887 548.872 129.644C548.583 129.401 548.191 129.28 547.696 129.28C547.239 129.28 546.875 129.378 546.604 129.574C546.334 129.77 546.198 130.027 546.198 130.344C546.198 130.596 546.278 130.806 546.436 130.974C546.604 131.133 546.81 131.263 547.052 131.366C547.304 131.459 547.65 131.567 548.088 131.688C548.639 131.837 549.087 131.987 549.432 132.136C549.778 132.276 550.072 132.491 550.314 132.78C550.566 133.069 550.697 133.447 550.706 133.914C550.706 134.334 550.59 134.712 550.356 135.048C550.123 135.384 549.792 135.65 549.362 135.846C548.942 136.033 548.457 136.126 547.906 136.126ZM556.789 136L553.779 132.612V136H552.505V125.64H553.779V131.73L556.733 128.328H558.511L554.899 132.15L558.525 136H556.789ZM559.234 132.136C559.234 131.352 559.393 130.666 559.71 130.078C560.027 129.481 560.461 129.019 561.012 128.692C561.572 128.365 562.193 128.202 562.874 128.202C563.546 128.202 564.129 128.347 564.624 128.636C565.119 128.925 565.487 129.289 565.73 129.728V128.328H567.018V136H565.73V134.572C565.478 135.02 565.1 135.393 564.596 135.692C564.101 135.981 563.523 136.126 562.86 136.126C562.179 136.126 561.563 135.958 561.012 135.622C560.461 135.286 560.027 134.815 559.71 134.208C559.393 133.601 559.234 132.911 559.234 132.136ZM565.73 132.15C565.73 131.571 565.613 131.067 565.38 130.638C565.147 130.209 564.829 129.882 564.428 129.658C564.036 129.425 563.602 129.308 563.126 129.308C562.65 129.308 562.216 129.42 561.824 129.644C561.432 129.868 561.119 130.195 560.886 130.624C560.653 131.053 560.536 131.557 560.536 132.136C560.536 132.724 560.653 133.237 560.886 133.676C561.119 134.105 561.432 134.437 561.824 134.67C562.216 134.894 562.65 135.006 563.126 135.006C563.602 135.006 564.036 134.894 564.428 134.67C564.829 134.437 565.147 134.105 565.38 133.676C565.613 133.237 565.73 132.729 565.73 132.15ZM572.909 128.188C573.842 128.188 574.598 128.473 575.177 129.042C575.755 129.602 576.045 130.414 576.045 131.478V136H574.785V131.66C574.785 130.895 574.593 130.311 574.211 129.91C573.828 129.499 573.305 129.294 572.643 129.294C571.971 129.294 571.434 129.504 571.033 129.924C570.641 130.344 570.445 130.955 570.445 131.758V136H569.171V128.328H570.445V129.42C570.697 129.028 571.037 128.725 571.467 128.51C571.905 128.295 572.386 128.188 572.909 128.188ZM578.532 136.084C578.289 136.084 578.084 136 577.916 135.832C577.748 135.664 577.664 135.459 577.664 135.216C577.664 134.973 577.748 134.768 577.916 134.6C578.084 134.432 578.289 134.348 578.532 134.348C578.765 134.348 578.961 134.432 579.12 134.6C579.288 134.768 579.372 134.973 579.372 135.216C579.372 135.459 579.288 135.664 579.12 135.832C578.961 136 578.765 136.084 578.532 136.084Z" fill="#939393"/>
<path d="M475 61.5H470.5V93C470.5 95.475 472.525 97.5 475 97.5H506.5V93H475V61.5ZM511 52.5H484C481.525 52.5 479.5 54.525 479.5 57V84C479.5 86.475 481.525 88.5 484 88.5H511C513.475 88.5 515.5 86.475 515.5 84V57C515.5 54.525 513.475 52.5 511 52.5ZM511 84H484V57H511V84ZM495.25 81.75H499.75V72.75H508.75V68.25H499.75V59.25H495.25V68.25H486.25V72.75H495.25V81.75Z" fill="#939393"/>
</svg>
