<svg width="26" height="28" viewBox="0 0 26 28" fill="none" xmlns="http://www.w3.org/2000/svg">
<path d="M16.624 26.495L10.9719 20.545L12.8338 18.585L16.624 22.575L24.1381 14.665L26 16.625L16.624 26.495ZM23.9386 12.6H21.2788V5.6H18.6189V9.8H5.31969V5.6H2.65985V25.2H10.6394V28H2.65985C1.92839 28 1.30244 27.7261 0.781995 27.1782C0.261552 26.6303 0.000886615 25.9709 0 25.2V5.6C0 4.83 0.260665 4.17107 0.781995 3.6232C1.30332 3.07533 1.92928 2.80093 2.65985 2.8H8.21228C8.4561 1.98333 8.93265 1.31273 9.64194 0.7882C10.3512 0.263667 11.127 0.000933333 11.9693 0C12.8559 0 13.6486 0.262733 14.3472 0.7882C15.0459 1.31367 15.5167 1.98427 15.7596 2.8H21.2788C22.0102 2.8 22.6366 3.0744 23.158 3.6232C23.6793 4.172 23.9395 4.83093 23.9386 5.6V12.6ZM11.9693 5.6C12.3461 5.6 12.6622 5.4656 12.9175 5.1968C13.1729 4.928 13.3001 4.59573 13.2992 4.2C13.2983 3.80427 13.1707 3.472 12.9162 3.2032C12.6618 2.9344 12.3461 2.8 11.9693 2.8C11.5925 2.8 11.2769 2.9344 11.0224 3.2032C10.7679 3.472 10.6403 3.80427 10.6394 4.2C10.6385 4.59573 10.7662 4.92847 11.0224 5.1982C11.2786 5.46793 11.5943 5.60187 11.9693 5.6Z" fill="white"/>
</svg>
